<?xml version="1.0" encoding="UTF-8"?><svg id="svg723" xmlns="http://www.w3.org/2000/svg" xmlns:xlink="http://www.w3.org/1999/xlink" viewBox="0 0 607.06 189.63"><defs><style>.cls-1{fill:#fff;}.cls-2{fill:#004fff;}.cls-3{fill:url(#Dégradé_sans_nom);}.cls-4{clip-path:url(#clippath);}.cls-5{fill:none;}.cls-6{fill:#2d2d2d;}</style><clipPath id="clippath"><rect class="cls-5" x="-330.91" y="-453.38" width="2282.07" height="1080"/></clipPath><radialGradient id="Dégradé_sans_nom" cx="-192.8" cy="492.58" fx="-192.8" fy="492.58" r="1" gradientTransform="translate(17222.71 43850.39) scale(88.83 -88.83)" gradientUnits="userSpaceOnUse"><stop offset="0" stop-color="#20b9d2"/><stop offset=".47" stop-color="#20b9d2"/><stop offset="1" stop-color="#004fff"/></radialGradient></defs><g id="g8"><g id="g10"><g class="cls-4"><g id="g12"><g id="g22"><path id="path24" class="cls-1" d="M247.49,128.81c-4.71,0-9.13-.83-13.26-2.49-4.13-1.66-7.77-3.97-10.92-6.93-3.15-2.96-5.6-6.39-7.37-10.3-1.76-3.9-2.64-8.1-2.64-12.58s.89-8.72,2.66-12.64c1.77-3.92,4.23-7.36,7.37-10.32,3.14-2.96,6.76-5.27,10.88-6.93,4.12-1.66,8.52-2.49,13.21-2.49,3.83,0,7.47,.54,10.94,1.62,3.46,1.08,6.43,2.51,8.9,4.27l-5.29,10.39c-1.69-1.33-3.74-2.38-6.16-3.14-2.42-.76-4.95-1.13-7.59-1.13-3.1,0-5.97,.52-8.6,1.55-2.63,1.03-4.93,2.47-6.88,4.31-1.95,1.84-3.47,3.99-4.55,6.46-1.08,2.47-1.62,5.14-1.62,8.01s.54,5.54,1.62,8.01,2.6,4.62,4.55,6.46c1.95,1.84,4.24,3.27,6.88,4.31,2.63,1.03,5.5,1.55,8.6,1.55,2.64,0,5.18-.38,7.59-1.13,2.42-.76,4.47-1.8,6.16-3.14l5.29,10.39c-2.37,1.71-5.28,3.12-8.73,4.23-3.45,1.11-7.13,1.66-11.03,1.66"/></g><g id="g26"><path id="path28" class="cls-1" d="M293.21,118.91c1.97,0,3.75-.45,5.36-1.36,1.61-.91,2.89-2.16,3.82-3.76,.93-1.6,1.4-3.45,1.4-5.54s-.47-3.94-1.4-5.54c-.93-1.6-2.2-2.85-3.82-3.76-1.61-.91-3.4-1.36-5.36-1.36s-3.79,.45-5.39,1.36c-1.6,.91-2.87,2.16-3.8,3.76-.93,1.6-1.4,3.44-1.4,5.54s.47,3.94,1.4,5.54c.93,1.6,2.2,2.85,3.8,3.76,1.6,.91,3.4,1.36,5.39,1.36m-.04,9.9c-4.26,0-8.1-.88-11.52-2.63-3.43-1.75-6.15-4.17-8.16-7.25-2.01-3.09-3.02-6.64-3.02-10.68s1-7.59,3-10.68c2-3.09,4.72-5.5,8.16-7.26,3.44-1.75,7.29-2.63,11.54-2.63s8.14,.88,11.56,2.63c3.43,1.75,6.14,4.17,8.14,7.26,2,3.09,3,6.64,3,10.68s-1,7.59-3,10.68c-2,3.09-4.72,5.5-8.14,7.25-3.43,1.75-7.28,2.63-11.56,2.63"/></g><g id="g30"><path id="path32" class="cls-1" d="M324.34,127.6v-38.69h11.6v4.31c1.49-1.66,3.34-3,5.57-4.01,2.23-1.01,4.69-1.51,7.39-1.51,2.97,0,5.58,.65,7.84,1.94,2.26,1.3,4.03,3.1,5.31,5.4,1.28,2.31,1.93,4.99,1.93,8.07v24.49h-11.6v-22.03c0-2.77-.73-4.93-2.17-6.48-1.45-1.55-3.43-2.32-5.95-2.32-1.71,0-3.19,.35-4.44,1.04-1.25,.69-2.2,1.64-2.87,2.83-.67,1.2-1,2.55-1,4.06v22.9h-11.6Z"/></g><g id="g34"><path id="path36" class="cls-1" d="M375.2,127.6v-38.69h11.6v4.31c1.49-1.66,3.34-3,5.57-4.01,2.23-1.01,4.69-1.51,7.39-1.51,2.97,0,5.58,.65,7.84,1.94,2.26,1.3,4.03,3.1,5.31,5.4,1.28,2.31,1.93,4.99,1.93,8.07v24.49h-11.6v-22.03c0-2.77-.73-4.93-2.17-6.48-1.45-1.55-3.43-2.32-5.95-2.32-1.71,0-3.19,.35-4.44,1.04-1.25,.69-2.2,1.64-2.87,2.83-.67,1.2-1,2.55-1,4.06v22.9h-11.6Z"/></g><g id="g38"><path id="path40" class="cls-1" d="M434.98,103.34h17.99c-.25-1.49-.79-2.77-1.6-3.85-.82-1.08-1.86-1.91-3.12-2.49-1.26-.58-2.68-.87-4.27-.87-1.69,0-3.17,.29-4.46,.87-1.28,.58-2.32,1.41-3.1,2.49-.78,1.08-1.26,2.37-1.44,3.85m9.67,25.47c-4.18,0-7.93-.9-11.24-2.7-3.31-1.8-5.94-4.25-7.88-7.35-1.94-3.1-2.91-6.6-2.91-10.51,0-2.87,.55-5.55,1.64-8.05,1.1-2.49,2.63-4.68,4.59-6.55,1.97-1.88,4.24-3.34,6.84-4.38,2.6-1.05,5.4-1.57,8.43-1.57,4.03,0,7.56,.84,10.6,2.51,3.03,1.68,5.4,4,7.1,6.97,1.7,2.97,2.55,6.44,2.55,10.39,0,.33,0,.61-.02,.85-.01,.24-.06,.69-.13,1.34h-29.66c0,1.97,.45,3.68,1.34,5.14,.89,1.46,2.15,2.6,3.76,3.42,1.61,.82,3.49,1.23,5.63,1.23,2.02,0,3.8-.39,5.35-1.17,1.55-.78,3.04-2.03,4.48-3.74l8.35,4.19c-1.81,3.12-4.38,5.57-7.71,7.33-3.33,1.76-7.03,2.65-11.11,2.65"/></g><g id="g42"><path id="path44" class="cls-1" d="M491.32,128.81c-2.95,0-5.72-.53-8.33-1.59-2.61-1.06-4.91-2.52-6.9-4.4-1.99-1.88-3.55-4.06-4.68-6.54-1.13-2.48-1.7-5.14-1.7-7.99s.53-5.35,1.61-7.82c1.07-2.47,2.58-4.66,4.53-6.58,1.95-1.91,4.24-3.42,6.88-4.53s5.49-1.66,8.56-1.66c2.49,0,4.89,.35,7.2,1.06,2.31,.71,4.16,1.61,5.57,2.72l-3.97,7.82c-1.89-1.39-4.23-2.08-7.03-2.08-2.39,0-4.42,.53-6.08,1.59-1.66,1.06-2.93,2.43-3.8,4.12-.87,1.69-1.3,3.46-1.3,5.33,0,2.04,.47,3.9,1.4,5.57,.93,1.68,2.25,3,3.95,3.99,1.7,.98,3.67,1.47,5.91,1.47,1.38,0,2.68-.19,3.89-.57,1.21-.38,2.23-.88,3.06-1.51l3.97,7.82c-1.43,1.08-3.29,1.98-5.55,2.7-2.27,.72-4.66,1.08-7.18,1.08"/></g><g id="g46"><path id="path48" class="cls-1" d="M524.73,128.81c-3.85,0-6.85-1.23-8.99-3.68-2.14-2.46-3.21-5.89-3.21-10.3v-17.12h-5.18v-8.8h5.18v-14.51h11.6v14.51h8.5v8.8h-8.5v16.29c0,1.46,.29,2.57,.89,3.33,.59,.76,1.43,1.13,2.51,1.13,1.21,0,2.37-.4,3.47-1.21l2.91,9.3c-1.31,.7-2.78,1.26-4.4,1.66-1.63,.4-3.22,.6-4.78,.6"/></g><path id="path50" class="cls-2" d="M560.92,88.91h11.6v38.69h-11.6v-38.69Zm5.82-8.05c-1.26,0-2.41-.31-3.46-.93-1.05-.62-1.88-1.46-2.51-2.51-.63-1.06-.95-2.22-.95-3.48s.32-2.41,.95-3.44c.63-1.03,1.47-1.86,2.51-2.47,1.04-.62,2.2-.93,3.46-.93s2.41,.31,3.44,.93c1.03,.62,1.86,1.44,2.47,2.47,.62,1.03,.93,2.18,.93,3.44s-.31,2.42-.93,3.48c-.62,1.06-1.44,1.9-2.47,2.51-1.03,.62-2.18,.93-3.44,.93"/><g id="g52"><path id="path54" class="cls-2" d="M597.88,128.81c-3.85,0-6.85-1.23-8.99-3.68-2.14-2.46-3.21-5.89-3.21-10.3v-17.12h-5.18v-8.8h5.18v-14.51h11.6v14.51h8.5v8.8h-8.5v16.29c0,1.46,.29,2.57,.89,3.33,.59,.76,1.43,1.13,2.51,1.13,1.21,0,2.37-.4,3.47-1.21l2.91,9.3c-1.31,.7-2.78,1.26-4.4,1.66-1.63,.4-3.22,.6-4.78,.6"/></g></g></g></g><g id="g56"><g id="g635"><g id="g150"><path id="path152" class="cls-2" d="M80.82,22.02l-26.14,29.66c-.31-.38-.67-.72-1.06-1.02l24.08-30.9,.25-.32c.06,.06,.11,.12,.17,.18,.77,.92,1.68,1.73,2.7,2.4"/></g><g id="g154"><path id="path156" class="cls-2" d="M89.62,24.02l-.82,37.24c-.31-.03-.62-.04-.93-.04-.25,0-.49,0-.73,.02l-1.08-37.23c.59,.09,1.2,.13,1.81,.13s1.18-.04,1.75-.12"/></g><g id="g158"><path id="path160" class="cls-2" d="M78.52,66.36c-.58,.92-1.03,1.93-1.32,3l-22.21-9.37c.3-.4,.54-.84,.74-1.3l22.79,7.67Z"/></g><g id="g162"><path id="path164" class="cls-2" d="M45.82,61.79l-19.34,23.56c-.71-.77-1.51-1.47-2.37-2.08l20.61-22.35c.33,.33,.7,.62,1.1,.87"/></g><g id="g166"><path id="path168" class="cls-2" d="M77.45,76.03l-46.95,16.89c-.25-1.14-.62-2.24-1.1-3.27l47.61-15.21c.11,.54,.26,1.08,.44,1.59"/></g><g id="g170"><path id="path172" class="cls-2" d="M83.37,82.41l-14.23,30.22-.9,1.9-8.48,18c-.39-.24-.8-.45-1.23-.62l7.58-17.98,.84-2,13.32-31.6c.9,.86,1.95,1.56,3.1,2.08"/></g><g id="g174"><path id="path176" class="cls-2" d="M89.64,83.21l-1.11,31.05c-.22-.03-.44-.04-.66-.04s-.41,.01-.61,.04l-1.11-31.04c.56,.09,1.13,.14,1.72,.14s1.19-.05,1.77-.15"/></g><g id="g178"><path id="path180" class="cls-2" d="M117.71,60c.14,.51,.35,.99,.61,1.44l-19.78,7.96c-.22-.83-.54-1.63-.94-2.38l20.11-7.02Z"/></g><g id="g182"><path id="path184" class="cls-2" d="M123.69,64.53l-5.15,54.74c-.82-.22-1.67-.34-2.56-.34-.4,0-.79,.02-1.17,.07l7.56-54.61c.42,.09,.85,.14,1.3,.14h.02Z"/></g><g id="g186"><path id="path188" class="cls-2" d="M163.59,50.97l-40.25,71.38c-.89-1.06-2.01-1.92-3.29-2.52l42.33-69.5c.38,.25,.79,.47,1.21,.64"/></g><g id="g190"><path id="path192" class="cls-2" d="M158.66,43.53c0,1.1,.22,2.15,.62,3.1l-29.6,10.21c-.12-.52-.32-1.02-.57-1.47l29.55-11.84Z"/></g><g id="g194"><path id="path196" class="cls-2" d="M160.71,46.14h0s0-.03-.02-.05c0,.02,.02,.03,.03,.05"/></g><g id="g198"><path id="path200" class="cls-2" d="M161.79,143.45c-.21,.4-.37,.82-.48,1.27l-37.03-11.21c.58-.97,1-2.05,1.2-3.2l36.31,13.14Z"/></g><g id="g202"><path id="path204" class="cls-2" d="M161.11,147.55l-60.04,26.38c-.34-1.29-.87-2.51-1.56-3.62l61.55-24.13c-.02,.14-.02,.29-.02,.44,0,.32,.02,.63,.07,.93"/></g><g id="g206"><path id="path208" class="cls-2" d="M111.15,136.93c.4,.23,.81,.44,1.25,.61l-15.78,29.43c-.99-.83-2.1-1.52-3.3-2.04l17.83-28Z"/></g><g id="g210"><path id="path212" class="cls-2" d="M89.49,163.89c-.53-.07-1.07-.1-1.62-.1s-1.09,.03-1.63,.1l.98-38.8c.21,.03,.43,.04,.65,.04s.43,0,.64-.04l.98,38.8Z"/></g><g id="g214"><path id="path216" class="cls-2" d="M79.54,166.63c-.94,.73-1.79,1.57-2.51,2.52l-18.31-22.45c.48-.2,.93-.46,1.35-.75l19.47,20.68Z"/></g><g id="g218"><path id="path220" class="cls-2" d="M22.83,108.94l-.17-.16s.09-.06,.13-.08c.01,.08,.03,.17,.04,.24"/></g><g id="g222"><path id="path224" class="cls-2" d="M49.66,133.85c-.34,.37-.65,.78-.93,1.21l-24.99-25.2c.95-.64,1.83-1.38,2.61-2.2l23.31,26.19Z"/></g><g id="g226"><path id="path228" class="cls-2" d="M69.14,112.63l13.93,4.45c-.24,.44-.42,.92-.53,1.43l-14.3-3.98-2.13-.6-36.92-10.29c.54-1.07,.96-2.2,1.24-3.38l36.52,11.67,2.19,.7Z"/></g><g id="g230"><path id="path232" class="cls-2" d="M107.15,124.7c-.4,.9-.67,1.87-.77,2.9l-13.33-6.25c.14-.42,.23-.85,.25-1.3l13.85,4.65Z"/></g><g id="g318"><path id="path320" class="cls-6" d="M23.09,84.38l-.23,.25c.02-.13,.03-.25,.06-.37,.05,.04,.11,.08,.17,.12"/></g><g id="g322"><path id="path324" class="cls-1" d="M22.79,108.7s-.09,.05-.13,.08l.17,.16c0-.07-.03-.16-.04-.24"/></g><g id="g326"><path id="path328" class="cls-1" d="M29.39,96.43c0,.29,0,.58-.03,.86,0,.23-.03,.46-.06,.69,0,.15-.03,.31-.05,.46-.01,.06-.02,.12-.03,.19,0,.06-.02,.12-.03,.18-.02,.13-.04,.26-.07,.39-.03,.15-.05,.29-.09,.44,0,.02,0,.05,0,.07,0,.03,0,.06-.02,.09,0,.02,0,.04-.02,.06-.06,.26-.12,.51-.2,.77-.02,.05-.03,.11-.05,.17-.08,.26-.17,.51-.27,.77-.1,.28-.22,.57-.35,.84-.12,.28-.25,.56-.4,.82-.16,.3-.33,.6-.5,.89-.27,.43-.56,.85-.87,1.26-.15,.2-.31,.4-.48,.59-.14,.17-.3,.34-.45,.51,0,.01-.02,.02-.03,.03l-.02,.02h-.01c-.2,.23-.42,.44-.63,.63-.1,.09-.19,.19-.29,.27-.1,.09-.2,.18-.3,.26-.21,.18-.43,.35-.65,.52h-.01c-.22,.17-.45,.33-.68,.48h0s-.09,.06-.13,.09c-.02,.01-.03,.02-.05,.03-.18,.12-.36,.23-.54,.33-.12,.08-.25,.15-.38,.21-.22,.12-.44,.24-.66,.34-.18,.09-.36,.17-.54,.24-.05,.02-.09,.04-.14,.06-.03,.01-.06,.03-.09,.04-.17,.08-.35,.15-.52,.21-.27,.1-.54,.19-.82,.27-.29,.09-.58,.16-.88,.23-.24,.06-.48,.11-.73,.15-.18,.04-.36,.06-.55,.09-.18,.03-.37,.05-.56,.07-.23,.03-.47,.05-.7,.06-.27,.01-.53,.02-.8,.02-.54,0-1.08-.03-1.6-.09-.13-.01-.25-.03-.37-.05-.09-.01-.18-.02-.27-.03-.14-.02-.28-.05-.41-.07-.01-.01-.02-.01-.03-.01-.24-.04-.49-.1-.73-.15-.03-.01-.06-.01-.09-.02-.01-.01-.03-.01-.05-.01-.04-.01-.08-.02-.12-.03-.24-.06-.47-.13-.71-.21-.16-.05-.31-.1-.47-.15-.12-.04-.23-.09-.34-.13-.27-.1-.53-.21-.79-.32l-.02-.02c-.2-.08-.41-.18-.61-.29-.02,0-.03-.01-.05-.02-.03-.02-.07-.03-.1-.05h0c-.29-.16-.58-.32-.86-.48h-.01c-.28-.19-.56-.37-.83-.56-.27-.19-.53-.39-.78-.59-.26-.21-.51-.43-.75-.65-.03-.03-.06-.05-.09-.08-.11-.1-.21-.2-.31-.3-.09-.09-.18-.18-.26-.27-.03-.03-.05-.05-.06-.07-.22-.23-.43-.46-.63-.7h0c-.1-.14-.21-.27-.31-.4-.11-.13-.21-.27-.3-.4-.09-.13-.19-.27-.28-.4-.09-.14-.18-.28-.27-.42-.15-.24-.29-.48-.42-.73-.08-.13-.14-.26-.2-.39-.11-.19-.2-.39-.29-.59-.01-.02-.03-.05-.04-.09-.13-.29-.25-.58-.36-.88H.89c-.02-.06-.04-.1-.05-.15-.06-.16-.12-.33-.17-.49-.03-.11-.06-.21-.09-.32-.07-.25-.13-.49-.19-.74-.01,0-.01-.02-.01-.03-.02-.05-.03-.11-.04-.16-.01-.07-.03-.13-.04-.2-.04-.18-.07-.35-.1-.53-.02-.1-.03-.21-.04-.31-.02-.05-.02-.1-.02-.15-.04-.25-.07-.49-.08-.74-.02-.09-.02-.18-.02-.27-.01-.14-.02-.27-.03-.41-.01-.18-.01-.37-.01-.55C0,96.24,0,96.06,.01,95.87l.03-.39c0-.1,0-.2,.02-.3,.01-.19,.03-.37,.06-.55v-.03s0-.03,.01-.04c.01-.17,.04-.35,.07-.52,0,0,0-.03,.01-.04,.02-.18,.05-.35,.09-.53,.03-.13,.05-.26,.09-.39,.03-.13,.05-.25,.09-.37,.03-.13,.07-.26,.11-.38-.01-.01,0-.02,0-.03,.09-.31,.19-.61,.3-.91,.09-.26,.2-.51,.31-.76,.05-.13,.1-.25,.17-.37,.09-.21,.19-.41,.3-.61,.03-.07,.07-.14,.11-.21,.05-.09,.1-.19,.16-.28,.02-.03,.04-.07,.06-.1,.09-.17,.19-.34,.3-.5,.08-.13,.16-.25,.24-.37,.08-.13,.17-.25,.26-.37,.18-.25,.37-.49,.56-.73,.04-.04,.07-.08,.1-.12,.03-.03,.05-.06,.09-.09,.17-.2,.35-.4,.53-.59,.23-.24,.47-.47,.71-.7,.01,0,.02-.01,.03-.03,.24-.21,.48-.41,.73-.61,.26-.21,.53-.41,.8-.6,.27-.19,.55-.37,.84-.54s.58-.33,.88-.48c.25-.13,.5-.25,.76-.36,.13-.06,.25-.11,.39-.16,.13-.06,.26-.11,.39-.16,.01,0,.03-.01,.04-.02,.25-.09,.5-.17,.76-.25s.52-.15,.78-.22c.21-.05,.42-.09,.63-.14,.16-.03,.31-.06,.47-.08h.02c.14-.03,.28-.05,.42-.06,.04-.01,.08-.02,.12-.02,.05-.01,.09-.02,.14-.02,.25-.03,.51-.05,.77-.07h.06c.29-.02,.58-.03,.88-.03,.25,0,.5,.01,.75,.02s.5,.03,.75,.06c.25,.02,.49,.05,.74,.09,.24,.04,.48,.08,.72,.13,.19,.04,.38,.08,.57,.13,.18,.05,.37,.1,.55,.15,.17,.05,.34,.1,.5,.16,.2,.06,.4,.13,.59,.2,.16,.05,.31,.12,.46,.19,.02,.01,.05,.02,.07,.03h.01c.13,.05,.26,.11,.38,.17,.13,.06,.25,.12,.38,.18,.07,.03,.13,.06,.2,.1,.22,.11,.44,.23,.65,.36,.31,.17,.6,.35,.89,.54,0,.01,.01,.01,.01,.01-.03,.12-.04,.24-.06,.37l.23-.25c.89,.62,1.7,1.33,2.44,2.13,.04,.05,.08,.09,.12,.14,.02,.02,.04,.04,.06,.07,.16,.17,.31,.36,.46,.55h0c.03,.05,.06,.09,.09,.13,.4,.5,.76,1.04,1.09,1.6,.08,.12,.15,.25,.22,.38,.13,.24,.26,.48,.38,.73,.1,.2,.19,.4,.27,.61,.07,.14,.12,.29,.17,.43,.07,.14,.12,.29,.17,.44,.03,.09,.06,.17,.09,.26,.08,.24,.15,.48,.21,.72,.08,.28,.15,.57,.21,.86,.2,.97,.31,1.97,.31,3"/></g><g id="g330"><path id="path332" class="cls-1" d="M99.19,11.32c0,.37-.02,.73-.05,1.09,0,.08-.02,.17-.03,.25-.02,.14-.03,.28-.06,.41-.03,.24-.08,.47-.13,.7-.03,.16-.07,.32-.12,.48-.03,.14-.07,.27-.11,.4-.06,.19-.12,.37-.19,.56-.05,.15-.11,.29-.17,.44-.02,.05-.04,.09-.06,.14-.06,.14-.13,.29-.2,.43-.07,.16-.16,.33-.25,.49-.08,.16-.17,.31-.27,.47-.16,.26-.33,.52-.51,.77-.07,.1-.15,.2-.22,.3-.14,.18-.29,.35-.44,.52-.08,.09-.15,.18-.23,.26-.07,.08-.15,.16-.24,.25,0,0-.03,.03-.04,.04-.18,.19-.38,.37-.58,.54-.25,.22-.5,.42-.76,.61-.11,.08-.22,.16-.34,.23-.3,.21-.61,.4-.93,.57-.16,.09-.32,.18-.49,.25-.25,.12-.5,.23-.76,.33-.25,.11-.51,.2-.78,.28h-.01c-.14,.05-.28,.09-.43,.13-.37,.1-.75,.18-1.13,.24-.02,0-.05,.01-.07,.01-.27,.04-.54,.07-.81,.09-.15,.01-.3,.03-.45,.03-.15,.01-.31,.01-.46,.01s-.31,0-.46-.01c-.16,0-.31-.02-.46-.03h-.05c-.26-.02-.51-.05-.75-.09-.05-.01-.09-.01-.14-.02h0c-.19-.04-.36-.07-.54-.11h-.01s-.03-.01-.04-.01c-.22-.05-.42-.1-.63-.16-.19-.05-.37-.11-.55-.17-.19-.07-.38-.13-.57-.21-.12-.05-.25-.1-.38-.16-.17-.07-.34-.15-.5-.24-.18-.09-.35-.18-.52-.28-.15-.09-.3-.18-.45-.27-.2-.12-.39-.25-.57-.39-.19-.13-.37-.27-.55-.42-.01-.01-.02-.01-.03-.02-.17-.14-.33-.28-.49-.43-.17-.16-.33-.32-.49-.49-.11-.1-.2-.21-.3-.32l-.05-.05c-.15-.18-.3-.35-.44-.54-.01-.01-.01-.02-.02-.03-.14-.18-.27-.36-.39-.55-.07-.09-.13-.18-.18-.27-.04-.06-.09-.12-.12-.19-.07-.11-.13-.22-.19-.33h0c-.12-.21-.23-.42-.33-.63-.04-.08-.08-.16-.11-.24-.12-.25-.22-.51-.32-.77,0,0-.01-.02-.01-.03-.06-.17-.12-.34-.17-.5l-.03-.09c-.08-.28-.16-.56-.22-.85-.05-.25-.1-.51-.14-.78-.03-.16-.05-.32-.06-.48-.01-.08-.01-.15-.02-.23-.01-.03-.01-.06-.01-.09v-.08c-.01-.09-.01-.19-.02-.28-.01-.16-.01-.32-.01-.48,0-.22,.01-.44,.02-.66,0-.14,.02-.28,.03-.42,.01-.15,.03-.29,.05-.44h.01c.02-.17,.05-.34,.08-.51,.03-.13,.05-.25,.07-.37h0s.01-.04,.01-.06c0,0,.01-.03,.01-.04,.05-.18,.09-.36,.14-.54,.05-.16,.1-.32,.15-.49,.05-.16,.11-.32,.17-.48,.11-.3,.24-.6,.38-.89,.15-.31,.31-.61,.49-.9,.17-.29,.36-.57,.56-.85,.09-.12,.18-.25,.27-.37,.12-.14,.23-.27,.35-.41,.09-.1,.18-.21,.27-.31,.17-.18,.35-.35,.53-.52,.09-.09,.19-.18,.29-.26,.02-.02,.04-.04,.06-.06,.34-.29,.71-.57,1.09-.82,.11-.07,.22-.15,.33-.22,.11-.07,.22-.13,.33-.19,.08-.05,.16-.1,.24-.14,.28-.15,.57-.29,.86-.42,.09-.04,.18-.08,.28-.12,.12-.05,.24-.1,.36-.14,.1-.04,.21-.07,.32-.11,.11-.03,.22-.07,.32-.1,.02-.01,.03-.01,.05-.02,.12-.04,.24-.07,.37-.1,.18-.05,.36-.09,.55-.13,.16-.03,.33-.06,.5-.09,.02,0,.04-.01,.06-.01,.27-.04,.54-.07,.82-.09,.07-.01,.15-.01,.22-.02,.07-.01,.15-.01,.22-.01,.15-.01,.31-.01,.46-.01s.31,0,.46,.01c.08,0,.16,0,.23,.01,.08,.01,.16,.01,.23,.02,.09,.01,.17,.01,.26,.02,.15,.02,.3,.04,.45,.06,.07,.01,.13,.02,.2,.03,.28,.04,.56,.1,.83,.17,.06,.01,.12,.02,.17,.04,.23,.06,.46,.12,.68,.2,.01,0,.02,.01,.03,.01,.02,0,.04,.01,.06,.02,.01,0,.03,.01,.04,.01,.26,.09,.5,.19,.75,.29,.22,.09,.43,.19,.63,.29,.11,.05,.21,.1,.31,.16,.18,.09,.36,.19,.53,.3,.14,.08,.27,.17,.4,.26,.15,.09,.29,.19,.42,.29,.11,.08,.23,.17,.34,.26,.11,.08,.23,.18,.33,.27,.22,.19,.44,.39,.64,.59,0,0,0,.01,0,.01,.1,.1,.2,.2,.3,.31,.09,.1,.19,.21,.28,.32,.11,.13,.22,.26,.33,.4,.07,.09,.14,.18,.21,.28,.2,.27,.38,.54,.56,.83,.13,.21,.25,.43,.36,.65,.14,.26,.26,.52,.38,.79,0,.01,0,.02,0,.02,.11,.27,.21,.54,.3,.81,.1,.28,.18,.57,.25,.86,.07,.28,.13,.56,.18,.85,.01,.05,.02,.11,.03,.16,.04,.26,.07,.51,.09,.78v.02c.02,.15,.02,.3,.03,.45,0,.16,0,.32,0,.47"/></g><g id="g334"><path id="path336" class="cls-6" d="M160.71,46.14h0s0-.03-.02-.05c0,.02,.02,.03,.03,.05"/></g><g id="g338"><path id="path340" class="cls-1" d="M160.68,46.09s0,.04,.02,.05h0s-.02-.03-.03-.05"/></g><g id="g342"><path id="path344" class="cls-1" d="M173.33,43.53c0,.19,0,.37-.02,.55,0,.02,0,.03,0,.05,0,.06,0,.12-.02,.18v.04c0,.12-.04,.24-.06,.35,0,.1-.03,.2-.06,.29,0,.04-.01,.08-.03,.12-.03,.13-.06,.26-.1,.38-.05,.18-.12,.36-.19,.53,0,.03-.02,.05-.03,.07-.07,.17-.15,.34-.24,.5-.03,.06-.06,.11-.09,.17-.07,.13-.15,.26-.24,.38-.03,.06-.07,.12-.11,.17-.08,.12-.17,.24-.26,.35-.12,.15-.25,.29-.38,.43-.04,.04-.08,.09-.13,.13-.09,.09-.19,.19-.29,.27-.02,.02-.05,.05-.08,.07-.03,.03-.06,.06-.1,.08-.13,.12-.28,.22-.42,.32-.2,.14-.41,.27-.63,.38-.12,.06-.23,.12-.35,.17-.1,.05-.2,.09-.3,.13-.76,.31-1.58,.48-2.44,.48-.21,0-.42-.01-.63-.03s-.42-.05-.62-.09c-.15-.03-.3-.06-.45-.11-.08-.02-.17-.04-.25-.07-.15-.05-.31-.1-.45-.16-.01,0-.01-.01-.02-.01-.05-.02-.11-.05-.17-.07-.06-.03-.12-.05-.18-.08-.01,0-.01-.01-.02-.01-.03-.01-.06-.03-.09-.04-.03-.01-.05-.03-.08-.04-.03-.01-.05-.03-.08-.04-.13-.07-.26-.14-.39-.23-.06-.02-.11-.06-.16-.09-.03-.02-.07-.04-.1-.07-.17-.11-.33-.23-.48-.36-.03-.02-.05-.04-.08-.06-.12-.1-.24-.21-.35-.32-.07-.07-.15-.14-.21-.22-.04-.04-.08-.08-.12-.13-.01-.01-.02-.02-.02-.03-.07-.06-.12-.13-.17-.2-.1-.12-.2-.25-.29-.38-.07-.1-.14-.21-.2-.32-.08-.13-.16-.25-.22-.38-.08-.15-.15-.29-.21-.44-.01-.02-.02-.03-.03-.05-.01-.02-.02-.05-.03-.08-.04-.08-.07-.16-.09-.25-.01-.02-.01-.04-.02-.06-.04-.11-.08-.22-.11-.33-.05-.16-.09-.32-.13-.49-.09-.44-.14-.89-.14-1.35,0-.21,.01-.41,.03-.61h0c.01-.14,.03-.26,.05-.39,.03-.2,.07-.39,.12-.58,.02-.09,.04-.18,.07-.27,.03-.09,.05-.18,.09-.27,.07-.25,.17-.48,.29-.71,.01-.04,.03-.07,.05-.11,.01-.02,.02-.04,.03-.05,.03-.06,.06-.12,.09-.17,.06-.11,.12-.22,.19-.32,.11-.17,.22-.34,.35-.5,.02-.03,.04-.06,.07-.09,.13-.17,.27-.34,.42-.49,.06-.06,.11-.12,.17-.17,.07-.07,.15-.14,.23-.21,.06-.06,.12-.11,.19-.16,.1-.09,.21-.17,.32-.24,.02-.02,.05-.03,.08-.05,.02-.02,.04-.04,.06-.05,0,0,.01,0,.01-.01,.19-.12,.37-.23,.57-.34,.1-.05,.19-.1,.29-.14,.09-.05,.19-.09,.3-.14,.19-.08,.37-.15,.56-.21h.01c.16-.05,.31-.09,.47-.13,.02,0,.04-.01,.06-.01,.09-.02,.16-.03,.24-.05,.01,0,.03-.01,.04-.01h.01s.07-.01,.1-.02h.05s.03-.01,.04-.01c.07-.02,.15-.03,.23-.03,.04-.01,.08-.01,.11-.01,.02-.01,.03-.01,.05-.01,.18-.01,.37-.02,.55-.02,3.63,0,6.58,2.95,6.58,6.58"/></g><g id="g346"><path id="path348" class="cls-1" d="M97.43,72.29c0,4.65-3.33,8.54-7.74,9.4-.59,.11-1.2,.17-1.82,.17s-1.19-.06-1.77-.16c-.73-.14-1.43-.36-2.09-.65-1.18-.53-2.23-1.28-3.11-2.2-.89-.95-1.59-2.08-2.04-3.33-.18-.5-.32-1.02-.41-1.55-.1-.55-.15-1.11-.15-1.68,0-.81,.1-1.6,.29-2.35,.28-1.12,.76-2.16,1.4-3.08,1.61-2.32,4.21-3.9,7.19-4.11,.23-.02,.46-.03,.69-.03,.3,0,.61,.01,.9,.04,3.16,.3,5.87,2.14,7.39,4.76,.43,.76,.77,1.57,.98,2.44,.19,.75,.29,1.53,.29,2.33"/></g><g id="g350"><path id="path352" class="cls-1" d="M54.77,56.04c0,.18,0,.36-.03,.54,0,.15-.04,.3-.07,.44,0,.03-.02,.07-.02,.11-.01,.04-.01,.07-.02,.1,0,.02-.01,.03-.01,.05-.01,.03-.01,.05-.02,.08-.03,.12-.06,.23-.1,.34-.06,.17-.12,.35-.2,.51-.1,.22-.2,.42-.33,.62-.06,.09-.12,.19-.19,.28-.07,.1-.14,.19-.21,.28-.23,.28-.48,.53-.75,.74-.09,.08-.18,.15-.27,.21-.04,.04-.09,.07-.13,.1-.07,.05-.15,.1-.23,.14,0,.01,0,.01,0,.01-.09,.05-.17,.11-.26,.15,0,.01-.02,.01-.03,.02,0,.01-.03,.01-.04,.02-.13,.06-.26,.13-.4,.18-.11,.05-.22,.09-.34,.12-.06,.02-.13,.04-.19,.06-.02,.01-.04,.01-.06,.02-.03,.01-.05,.01-.08,.02-.05,.02-.1,.03-.16,.04-.17,.04-.34,.07-.52,.08-.01,.01-.03,.01-.04,.01-.05,.01-.1,.01-.15,.02-.15,.01-.3,.02-.45,.02-.18,0-.36-.01-.54-.03s-.36-.04-.53-.08c-.14-.03-.28-.06-.42-.11-.13-.04-.26-.08-.38-.13-.04-.01-.07-.02-.1-.03-.14-.06-.27-.12-.41-.19-.09-.04-.18-.09-.27-.15-.01,0-.02,0-.03-.01s-.02-.01-.03-.02c-.07-.05-.15-.09-.22-.14-.08-.05-.15-.1-.22-.16-.21-.14-.4-.3-.58-.48-.02-.02-.03-.03-.04-.05-.12-.11-.23-.23-.33-.36-.21-.25-.4-.52-.56-.82-.04-.08-.08-.15-.12-.23-.04-.07-.08-.15-.11-.23-.02-.04-.04-.09-.05-.13-.05-.12-.1-.25-.14-.38-.06-.19-.11-.38-.14-.57-.03-.13-.05-.27-.06-.41-.01-.05-.01-.1-.01-.15-.02-.15-.03-.3-.03-.45,0-2.93,2.39-5.31,5.32-5.31,.18,0,.36,.01,.54,.03,.14,.01,.27,.03,.4,.06h.01c.08,.01,.15,.02,.23,.05,.02,0,.04,0,.06,.01,.04,.01,.07,.02,.11,.03,0,0,.03,.01,.04,.01,.09,.03,.18,.05,.27,.08,.18,.06,.35,.13,.52,.21h.02c.19,.09,.36,.18,.53,.29,.17,.11,.34,.23,.5,.35,.08,.05,.15,.11,.22,.17,.11,.08,.21,.17,.3,.27,.12,.12,.23,.25,.34,.38,.04,.05,.08,.1,.12,.15,0,.02,.02,.03,.04,.05,0,.02,.03,.04,.04,.06,.07,.09,.13,.19,.2,.29,0,0,.02,.03,.03,.04,.01,.02,.03,.05,.04,.07h0c.05,.09,.1,.17,.14,.25,.06,.11,.11,.22,.16,.33,.07,.15,.13,.3,.18,.46,.07,.2,.12,.41,.16,.62,0,.02,0,.04,0,.06,.03,.14,.05,.29,.07,.44,.02,.18,.03,.36,.03,.55"/></g><g id="g354"><path id="path356" class="cls-1" d="M128.37,58.34c0,2.59-2.11,4.69-4.7,4.69-.12,0-.24,0-.36-.01-.08-.01-.17-.02-.25-.03-.1-.01-.2-.03-.3-.05-.09-.02-.19-.04-.29-.07-.12-.03-.23-.06-.35-.11-.04-.01-.09-.02-.13-.05-.12-.03-.23-.08-.34-.14-.09-.04-.17-.08-.26-.13-.16-.09-.31-.18-.45-.29-.02,0-.03-.02-.05-.04-.15-.1-.29-.22-.43-.35-.28-.26-.52-.56-.73-.88-.1-.16-.2-.33-.28-.5-.04-.07-.07-.14-.1-.21-.04-.11-.08-.21-.11-.32-.04-.1-.08-.2-.1-.31,0,0-.01-.02-.01-.03v-.02c-.05-.18-.09-.36-.11-.55-.01-.07-.02-.13-.02-.2-.01-.02-.01-.04-.01-.06-.01-.11-.01-.23-.01-.34,0-2.59,2.1-4.7,4.69-4.7,.13,0,.25,.01,.38,.02,.04,0,.1,.01,.15,.01h.02c.23,.03,.46,.07,.68,.14,.07,.01,.13,.03,.19,.05,.13,.04,.26,.09,.39,.14,.15,.07,.3,.14,.44,.22,.11,.06,.22,.12,.33,.2,.02,0,.04,.03,.07,.05,.09,.06,.18,.12,.26,.19h0c.11,.09,.21,.18,.31,.27,.03,.04,.06,.06,.09,.09,.13,.13,.25,.27,.36,.42,.13,.16,.24,.32,.34,.49,.06,.09,.11,.18,.16,.28,0,0,0,0,0,0,0,0,0,0,0,.02,0,.02,.02,.04,.03,.06,.05,.09,.09,.2,.13,.3,.1,.23,.17,.48,.22,.73,.04,.16,.07,.32,.09,.49,.02,.17,.03,.35,.03,.52"/></g><g id="g358"><path id="path360" class="cls-1" d="M91.82,119.68c0,.18,0,.35-.04,.53-.02,.14-.04,.28-.08,.42,0,.02,0,.03,0,.05,0,.01-.01,.02-.01,.03-.02,.09-.05,.18-.09,.27-.03,.09-.06,.18-.1,.27-.05,.1-.1,.21-.15,.31-.04,.08-.09,.16-.14,.24-.02,.03-.04,.06-.06,.09-.14,.21-.3,.4-.48,.58-.08,.08-.16,.16-.25,.23-.21,.18-.43,.33-.67,.46-.1,.05-.2,.1-.3,.15-.16,.07-.33,.12-.49,.16-.16,.05-.32,.09-.48,.11-.19,.03-.4,.05-.6,.05-.13,0-.26,0-.38-.02-.08,0-.15-.02-.23-.03-.01,0-.02,0-.03,0-.08,0-.15-.02-.23-.04h-.01s-.03,0-.05,0c-.03,0-.05-.02-.08-.03-.1-.02-.19-.05-.28-.08-.11-.04-.22-.08-.33-.13-.1-.05-.21-.1-.31-.16-.17-.09-.32-.19-.47-.3-.01,0-.03-.02-.04-.03-.05-.04-.1-.08-.14-.12-.06-.05-.11-.1-.17-.16-.07-.07-.14-.14-.2-.21-.04-.04-.07-.07-.1-.11-.05-.05-.09-.1-.12-.16-.01,0-.02-.03-.03-.04-.07-.09-.13-.18-.18-.27-.07-.11-.13-.21-.18-.32-.02-.05-.04-.09-.06-.13-.03-.04-.05-.09-.06-.14-.01,0-.01-.03-.02-.04-.05-.13-.09-.27-.13-.41-.01-.05-.02-.09-.03-.14-.01-.04-.03-.09-.03-.14-.05-.23-.07-.47-.07-.72s.03-.51,.07-.76c0,0,.01-.03,.01-.04,.03-.13,.06-.26,.1-.38,.03-.1,.07-.2,.11-.29,.04-.11,.09-.21,.14-.31,.06-.12,.12-.24,.2-.35,.09-.15,.2-.3,.32-.43,.07-.09,.15-.17,.23-.25,.1-.11,.21-.2,.33-.29,.06-.05,.12-.09,.18-.13l.18-.12s.09-.06,.14-.09c.05-.03,.1-.05,.15-.08,.01,0,.03-.02,.04-.02,.12-.06,.24-.12,.36-.16,.07-.03,.14-.05,.21-.07,.06-.02,.13-.04,.2-.06,.1-.02,.2-.05,.3-.07,.02,0,.04,0,.06,0s.05,0,.07,0c.18-.03,.37-.04,.56-.04,.13,0,.26,0,.38,.02,.08,0,.15,.02,.23,.03,0,0,.02,0,.03,0,.1,0,.2,.03,.3,.06,.08,.02,.16,.04,.23,.06,.09,.03,.18,.06,.27,.09,.48,.19,.91,.47,1.27,.82,.08,.07,.15,.14,.21,.21,0,0,.03,.03,.04,.05,.06,.06,.11,.12,.16,.19h0c.09,.13,.18,.26,.26,.4,.02,.03,.04,.07,.06,.11,.02,.04,.04,.08,.06,.11,.11,.2,.19,.41,.26,.62,.03,.13,.07,.25,.1,.38,.02,.11,.04,.23,.05,.34,0,.11,.02,.22,.02,.33,0,.04,0,.09,0,.13"/></g><g id="g362"><path id="path364" class="cls-1" d="M124.14,128.58c0,.42-.03,.82-.09,1.22,0,.05,0,.1-.02,.14-.04,.23-.09,.46-.15,.68-.03,.13-.07,.25-.11,.38-.06,.2-.13,.39-.21,.58-.04,.11-.08,.22-.14,.33-.03,.07-.06,.13-.09,.2-.05,.12-.11,.24-.18,.35-.04,.08-.08,.15-.13,.23-.07,.13-.15,.25-.23,.37-.02,.03-.04,.05-.05,.08-.13,.2-.27,.38-.42,.56,0,.01-.02,.03-.03,.04,0,.02-.03,.03-.05,.05-.14,.18-.3,.35-.46,.52l-.03,.03c-.18,.17-.36,.34-.55,.5l-.03,.03c-.19,.15-.39,.3-.59,.44-.02,.01-.03,.02-.04,.03-.2,.13-.41,.26-.63,.38-.15,.08-.3,.16-.45,.23-.25,.12-.5,.23-.77,.32-.21,.07-.43,.14-.65,.2-.19,.05-.39,.09-.59,.12-.14,.03-.28,.06-.42,.07-.17,.03-.35,.04-.52,.05-.18,.01-.35,.02-.53,.02-.21,0-.42-.01-.62-.02-.07-.01-.14-.01-.21-.02-.17-.02-.35-.04-.52-.07-.1-.02-.19-.03-.29-.06-.26-.05-.52-.12-.78-.2-.15-.04-.3-.09-.45-.15-.1-.04-.2-.07-.29-.12-.13-.05-.25-.1-.37-.16-.17-.09-.34-.18-.5-.27-.15-.09-.3-.18-.45-.28-.14-.08-.27-.18-.39-.27-.15-.11-.29-.22-.42-.34-.13-.1-.25-.21-.36-.32-.17-.17-.34-.34-.5-.52-.08-.11-.17-.22-.26-.33-.12-.14-.22-.28-.32-.42,0-.02-.01-.03-.03-.04-.08-.13-.17-.27-.25-.41-.09-.15-.18-.31-.26-.47-.06-.12-.12-.25-.18-.38-.03-.06-.06-.12-.08-.19-.06-.14-.11-.27-.16-.41-.13-.36-.23-.73-.3-1.11-.03-.16-.06-.31-.08-.47-.03-.14-.04-.29-.05-.44-.01-.02-.01-.05-.01-.08v-.03c-.01-.19-.02-.38-.02-.57,0-.1,0-.2,.01-.3,0-.12,.01-.24,.02-.36,0-.03,.01-.05,0-.07,.01-.04,.01-.07,.01-.1,.02-.09,.03-.18,.04-.27,.02-.1,.03-.19,.04-.29,0-.02,.01-.05,.01-.07,.03-.14,.06-.29,.1-.43-.01,0,0-.02,0-.03,.06-.25,.13-.5,.22-.75,.08-.23,.17-.46,.27-.68,0-.02,.01-.03,.02-.05,.14-.3,.3-.59,.47-.87,.08-.14,.17-.27,.27-.41,.08-.12,.17-.24,.26-.35,.22-.28,.46-.55,.72-.8,.11-.1,.22-.2,.33-.3,.12-.11,.25-.21,.38-.31s.26-.2,.4-.29c.1-.06,.19-.13,.29-.19h.01c.09-.06,.19-.12,.29-.18,.01,0,.02-.01,.03-.02,.18-.1,.37-.2,.57-.29,.01,0,.01-.01,.02-.01l.06-.03c.16-.06,.31-.13,.47-.19,.14-.05,.28-.09,.42-.14,.34-.1,.68-.19,1.04-.25,.1-.02,.22-.04,.32-.05,.12-.02,.22-.03,.33-.04h.05c.23-.02,.45-.03,.68-.03,.17,0,.33,.01,.5,.02,.07,0,.14,.01,.22,.01,.31,.03,.62,.07,.92,.14,.27,.05,.53,.12,.78,.2,.08,.03,.15,.05,.22,.07,.08,.02,.15,.05,.22,.08,.14,.05,.28,.1,.42,.17,.16,.07,.33,.15,.49,.23,.15,.08,.31,.17,.46,.26,.15,.1,.31,.2,.45,.3,.28,.19,.55,.41,.81,.64,.16,.14,.31,.3,.46,.46,.12,.13,.23,.26,.34,.39,.03,.04,.06,.07,.09,.11,.07,.08,.13,.16,.19,.24,.12,.16,.24,.33,.34,.5,.1,.15,.18,.3,.26,.45,.06,.1,.12,.21,.17,.32,.12,.25,.23,.51,.32,.77,.05,.12,.09,.24,.13,.36,.11,.36,.2,.73,.26,1.1,.02,.1,.03,.21,.05,.31,0,.12,.02,.23,.03,.35,.02,.22,.03,.44,.03,.67"/></g><g id="g366"><path id="path368" class="cls-1" d="M100.04,177.46c0,.19,0,.39-.02,.58v.11c0,.11,0,.22-.03,.33,0,.05,0,.1,0,.14-.02,.2-.04,.39-.07,.58-.02,.1-.03,.21-.05,.31-.04,.27-.09,.54-.16,.8-.02,.1-.05,.19-.07,.28-.02,.09-.05,.19-.08,.28-.08,.26-.16,.51-.25,.77-.11,.3-.23,.6-.37,.89-.06,.14-.13,.28-.2,.42-.08,.17-.17,.34-.27,.5-.08,.14-.16,.28-.25,.42-.34,.55-.72,1.07-1.15,1.56-.19,.22-.39,.43-.59,.64-2.2,2.2-5.25,3.56-8.6,3.56-.4,0-.79-.02-1.17-.06-.11-.01-.22-.02-.34-.04-.22-.02-.44-.05-.66-.1-.22-.04-.43-.08-.64-.13s-.42-.11-.63-.17-.41-.12-.61-.2c-.12-.04-.24-.09-.35-.13-.11-.03-.22-.08-.33-.13-.18-.07-.36-.15-.54-.24-.19-.1-.38-.2-.57-.3-.33-.17-.65-.37-.96-.58-.3-.21-.59-.42-.87-.65-.38-.31-.75-.65-1.09-1-.17-.18-.33-.36-.49-.54-.16-.19-.32-.38-.46-.58-.13-.17-.26-.34-.38-.52-.02-.02-.04-.05-.05-.08-.13-.19-.25-.38-.36-.58-.12-.2-.23-.4-.33-.6-.06-.11-.11-.22-.17-.34-.07-.15-.14-.29-.19-.43-.07-.14-.13-.29-.18-.44-.12-.29-.22-.59-.3-.89-.07-.24-.14-.49-.19-.74-.07-.29-.13-.58-.17-.88-.04-.24-.07-.49-.09-.74-.03-.35-.05-.72-.05-1.08,0-.21,.01-.42,.02-.62,0-.16,.02-.32,.03-.48,.01-.14,.03-.28,.05-.42,.02-.2,.05-.4,.09-.59,.04-.29,.11-.58,.18-.87,.03-.12,.06-.24,.1-.36,.05-.2,.11-.39,.18-.58h.01c.09-.28,.19-.55,.3-.81,.06-.14,.12-.28,.19-.42,.05-.13,.11-.25,.18-.37,.28-.56,.61-1.09,.97-1.6,.04-.05,.08-.1,.12-.16,.15-.19,.3-.38,.45-.56,.16-.19,.32-.37,.5-.55,.13-.14,.27-.28,.41-.41,.34-.34,.71-.65,1.09-.94,.27-.2,.55-.39,.84-.57,.13-.09,.27-.17,.41-.24,.14-.08,.27-.16,.41-.23,.2-.1,.4-.2,.6-.29,.28-.13,.57-.25,.86-.36,.19-.07,.38-.13,.57-.19,.13-.04,.27-.08,.41-.12,.25-.07,.5-.13,.75-.18,.26-.05,.52-.09,.78-.13,.34-.05,.69-.09,1.05-.1,.2-.01,.41-.02,.62-.02,.56,0,1.12,.04,1.66,.11,.4,.06,.8,.13,1.19,.23,.13,.03,.26,.06,.39,.1,.25,.07,.51,.15,.76,.24,.17,.05,.33,.11,.48,.18,.06,.02,.11,.04,.16,.06,.34,.14,.67,.29,.99,.47,.27,.14,.53,.29,.79,.45,.28,.17,.55,.36,.82,.56,.27,.2,.53,.41,.78,.63,.2,.17,.4,.35,.58,.54,.03,.03,.07,.06,.09,.1,.19,.18,.36,.37,.52,.56,.16,.18,.31,.36,.45,.55,.04,.05,.08,.1,.11,.14,.15,.2,.29,.41,.42,.61,.02,.02,.03,.03,.04,.05,.01,.02,.02,.04,.04,.06,.09,.15,.19,.31,.28,.47,.1,.19,.2,.37,.3,.56,.42,.81,.74,1.68,.97,2.58,.04,.2,.09,.39,.12,.59,.03,.14,.06,.27,.08,.41,.04,.25,.07,.51,.1,.77,.01,.17,.03,.35,.03,.53,0,.2,.02,.41,.02,.62"/></g><g id="g370"><path id="path372" class="cls-1" d="M62.04,139.35c0,.19,0,.37-.02,.55,0,.02,0,.03,0,.05,0,.08,0,.17-.03,.25-.01,.12-.03,.23-.05,.35-.02,.07-.03,.15-.05,.22,0,0,0,.02-.01,.04-.04,.18-.08,.35-.14,.53-.04,.12-.08,.23-.13,.35,0,.04-.02,.07-.04,.11-.02,.06-.05,.13-.08,.19,0,.02,0,.03-.02,.05-.05,.12-.11,.23-.17,.34-.02,.05-.05,.1-.08,.14-.07,.14-.15,.27-.24,.4-.02,.04-.04,.07-.07,.11-.09,.14-.2,.28-.3,.41-.04,.04-.07,.08-.1,.12-.12,.14-.24,.27-.37,.4-.14,.14-.28,.27-.43,.39-.03,.03-.06,.05-.09,.08-.11,.09-.23,.18-.36,.27-.07,.04-.14,.09-.22,.14-.4,.26-.84,.48-1.3,.64-.15,.06-.31,.11-.47,.15-.06,.02-.12,.03-.18,.05-.12,.03-.24,.06-.37,.08-.05,.01-.11,.02-.16,.02-.15,.03-.3,.05-.45,.06-.19,.02-.38,.03-.58,.03-3.6,0-6.53-2.92-6.53-6.52,0-.18,.01-.37,.02-.55,0-.02,0-.03,.01-.05,0-.08,.01-.17,.03-.25,.03-.27,.08-.53,.15-.78,0-.02,.01-.05,.02-.07,.03-.12,.07-.24,.11-.36,.04-.13,.09-.26,.14-.39,.02-.06,.05-.13,.08-.19,0-.02,.01-.03,.02-.05,.05-.12,.11-.23,.17-.34,.03-.05,.05-.1,.08-.15h0c.04-.08,.08-.14,.12-.21,.02-.03,.04-.06,.06-.09,.06-.09,.11-.18,.17-.26,.09-.12,.17-.23,.26-.34,.07-.1,.14-.19,.24-.28,.07-.08,.13-.15,.2-.22,.03-.04,.07-.08,.11-.11s.08-.07,.11-.1h.01s.07-.07,.1-.1t.02-.02s.03-.02,.04-.03c.13-.11,.26-.22,.4-.32,.17-.12,.34-.24,.52-.34,.02-.02,.04-.03,.07-.05,.18-.11,.37-.2,.57-.29,.08-.04,.16-.08,.25-.11,.12-.05,.25-.1,.38-.14,.09-.03,.19-.07,.29-.09,.09-.03,.18-.05,.28-.07,.09-.02,.18-.04,.27-.06,.13-.03,.26-.05,.4-.06,.04-.01,.08-.02,.12-.02,.05-.01,.1-.01,.15-.01,.02-.01,.03-.01,.05-.01,.17-.01,.34-.02,.51-.02s.33,.01,.5,.02h.04s.03,0,.05,.01c.08,0,.17,.01,.25,.03h.03l.18,.03c.12,.02,.24,.04,.36,.07,.15,.03,.29,.07,.44,.11,.07,.02,.15,.04,.21,.06t.02,0c.12,.04,.24,.08,.35,.13,.06,.02,.12,.05,.18,.08,.1,.04,.2,.09,.3,.14,.03,.02,.06,.03,.09,.05,.06,.03,.13,.06,.19,.1,.14,.07,.28,.15,.41,.24,.33,.22,.64,.47,.92,.75,.06,.06,.12,.11,.17,.17,.12,.12,.23,.25,.34,.38,.1,.12,.2,.25,.3,.39,.01,0,.01,.02,.02,.03h0s.05,.07,.07,.11c.02,.03,.05,.07,.07,.11,0,0,0,.02,.02,.03,0,0,0,0,0,0,.08,.12,.15,.24,.21,.36,.08,.15,.16,.3,.23,.46,.2,.44,.35,.92,.44,1.4,.03,.17,.06,.34,.08,.52,0,.05,0,.1,0,.14,.02,.19,.03,.39,.03,.59"/></g><g id="g374"><path id="path376" class="cls-1" d="M173.81,146.62c0,3.11-2.53,5.64-5.64,5.64-.19,0-.38-.01-.57-.03-.16-.02-.32-.04-.47-.07-.08-.01-.16-.03-.23-.05-.08-.02-.16-.04-.23-.06-.16-.04-.32-.09-.47-.15-.1-.03-.2-.07-.29-.12-.1-.04-.19-.09-.29-.14l-.18-.09c-.09-.05-.18-.1-.26-.16-.03-.01-.07-.04-.1-.06-.07-.04-.14-.09-.21-.15-.11-.07-.2-.15-.3-.23-.16-.13-.32-.28-.46-.43-.1-.1-.19-.2-.28-.31-.1-.12-.19-.24-.28-.37-.11-.16-.22-.33-.31-.51-.02-.04-.05-.08-.07-.13-.01,0-.01-.02-.02-.03-.05-.09-.09-.18-.13-.28-.07-.15-.13-.31-.18-.47-.06-.16-.1-.32-.14-.48-.04-.17-.07-.34-.09-.5-.03-.17-.04-.35-.05-.52-.02-.1-.02-.2-.02-.3,0-.19,.01-.38,.03-.57,.02-.17,.04-.33,.07-.49,.03-.14,.06-.28,.1-.41,.03-.1,.06-.21,.09-.31,.03-.11,.07-.21,.11-.3,.08-.2,.17-.39,.27-.57h0c.07-.14,.15-.27,.23-.4,.04-.06,.08-.13,.13-.19,.08-.12,.17-.24,.26-.35,.12-.14,.23-.27,.36-.39,.13-.13,.26-.25,.4-.36,.1-.09,.2-.17,.31-.24,.01-.01,.02-.02,.03-.02,.06-.05,.13-.1,.2-.14,.1-.06,.19-.12,.29-.17,.02-.01,.05-.02,.07-.04,.18-.09,.36-.18,.55-.26,.11-.05,.22-.09,.33-.12,.08-.03,.17-.06,.26-.08,.16-.05,.32-.09,.49-.12,.16-.03,.33-.06,.5-.07,.18-.02,.36-.03,.55-.03s.38,.01,.57,.03c.17,.02,.33,.04,.49,.07,.11,.02,.23,.05,.34,.08,.45,.11,.88,.28,1.28,.5h0c.16,.09,.33,.19,.48,.3,.02,.01,.04,.03,.06,.04,.09,.06,.18,.12,.26,.19l.03,.03c.13,.1,.26,.21,.38,.33s.24,.24,.35,.37c.09,.1,.18,.21,.26,.32,.02,.03,.04,.06,.06,.08,.05,.06,.1,.13,.14,.2,.04,.06,.08,.13,.12,.2,.08,.13,.16,.26,.22,.4,.02,.02,.03,.05,.04,.07,.04,.07,.06,.13,.09,.2,.02,.05,.04,.09,.06,.14,.01,.02,.02,.05,.03,.07,0,0,0,.02,0,.03,.01,.03,.02,.05,.03,.08,.01,.03,.02,.05,.02,.08,.04,.08,.06,.17,.08,.24,.05,.16,.09,.32,.13,.49,.03,.17,.05,.34,.07,.52,.02,.19,.03,.38,.03,.57"/></g></g><g id="g58"><g id="g64"><g id="g66"><path id="path76" class="cls-3" d="M100.69,11.32c0,1.54-.27,3.02-.78,4.39h0c10.54-.42,21.24,1.18,31.3,4.88h0c10.15,3.74,19.62,9.58,27.58,17.11h0c.43,.41,.86,.82,1.29,1.25h0c.54-.78,1.21-1.45,1.98-1.99h0c-.4-.44-.8-.88-1.21-1.31h0c-7.8-8.23-17.21-15.04-27.66-19.83h0c-10.26-4.74-21.54-7.51-33-8.03h0c.33,1.12,.5,2.31,.5,3.53m-35.71,1.92c-11.12,4.13-21.47,10.57-30.16,18.83h0c-8.71,8.26-15.76,18.34-20.53,29.46h0c-2.37,5.56-4.23,11.36-5.43,17.3h0c-.18,.9-.35,1.8-.5,2.7h0c1.95-.83,4.09-1.29,6.34-1.29h0c3.11,0,6.02,.88,8.49,2.41h0c.94-5.33,2.43-10.56,4.43-15.6h0c3.75-9.48,9.34-18.26,16.4-25.78h0c7.07-7.49,15.59-13.7,25.07-18.09h0c2.79-1.3,5.67-2.45,8.61-3.42h0c.14-.05,.28-.1,.42-.14h0c-.06-.06-.11-.12-.17-.18h0c-1.81-2.21-2.9-5.04-2.9-8.12h0c0-.39,.02-.78,.06-1.16h0c-3.43,.82-6.81,1.85-10.13,3.08m105.08,37.66c2.95,4.3,5.48,8.89,7.54,13.68h0c2.17,5.08,3.87,10.37,4.97,15.79h0c1.1,5.43,1.66,10.96,1.69,16.51h0c-.03,5.54-.59,11.07-1.69,16.5h0c-1.1,5.42-2.8,10.72-4.97,15.79h0c-1.67,3.9-3.66,7.66-5.93,11.24h0c.57,.32,1.08,.71,1.54,1.16h0c2.22-3.8,4.15-7.75,5.77-11.82h0c4.15-10.45,6.31-21.66,6.28-32.87h0c.03-11.22-2.13-22.43-6.28-32.87h0c-1.96-4.91-4.36-9.67-7.18-14.17h0c-.53,.43-1.11,.79-1.74,1.06M22.66,108.78l.17,.16c-.01-.07-.03-.16-.04-.24h0s-.09,.05-.13,.08m-7.96,3.85c-2.31,0-4.51-.49-6.5-1.37h0c.19,1.22,.41,2.44,.66,3.66h0c1.2,5.94,3.06,11.74,5.43,17.3h0c4.77,11.12,11.82,21.21,20.53,29.46h0c8.69,8.27,19.04,14.7,30.16,18.83h0c3.52,1.31,7.11,2.39,10.75,3.23h0c-.98-1.88-1.53-4.02-1.53-6.28h0c0-1.55,.26-3.04,.74-4.43h0c-1.99-.74-3.94-1.56-5.85-2.45h0c-9.48-4.4-18-10.61-25.07-18.1h0c-7.06-7.51-12.65-16.3-16.4-25.78h0c-2.1-5.29-3.63-10.8-4.57-16.4h0c-2.44,1.48-5.3,2.33-8.35,2.33m144.09,43.42c-7.96,7.53-17.43,13.37-27.58,17.11h0c-9.55,3.51-19.68,5.13-29.69,4.93h0c-.13,3-1.24,5.75-3.02,7.94h0c.37,0,.75-.01,1.12-.03h0c11.66-.47,23.14-3.25,33.57-8.07h0c10.45-4.79,19.86-11.6,27.66-19.82h0c1.52-1.61,2.98-3.28,4.38-4.99h0c-.79-.36-1.51-.86-2.12-1.47h0c-1.38,1.52-2.82,2.99-4.32,4.4"/></g></g></g></g></g></svg>